<?xml version="1.0" encoding="UTF-8"?>
<svg id="Calque_1" data-name="Calque 1" xmlns="http://www.w3.org/2000/svg" xmlns:xlink="http://www.w3.org/1999/xlink" viewBox="0 0 1117.15 1052.94">
  <defs>
    <style>
      .cls-1 {
        fill: url(#Dégradé_sans_nom_846);
      }
    </style>
    <linearGradient id="Dégradé_sans_nom_846" data-name="Dégradé sans nom 846" x1="128.25" y1="526.47" x2="988.9" y2="526.47" gradientUnits="userSpaceOnUse">
      <stop offset="0" stop-color="#e900dd"/>
      <stop offset="1" stop-color="#8300bf"/>
    </linearGradient>
  </defs>
  <path class="cls-1" d="m712.8,193.6c148.78,56.65,248.73,201.53,248.73,360.49,0,87.18-30.01,172.57-84.55,240.68,1.06,5.77,5.73,25.22,8.78,32.35v.02l.02-.02c66.51-75.27,103.13-172.24,103.13-273.03,0-110.32-42.95-214.03-120.95-292.03-44.05-44.03-95.77-76.78-153.78-97.32,1.61,9.07-.78,22.02-2.24,28.52l.88.35Zm167.65,685.98c-3.01-8.98-5.98-17.97-8.92-26.99-.97-2.99-1.93-6-2.9-9.01v-.02c-3.21-10.04-6.31-20.11-9.31-30.22v-.02c-1.44-4.89-2.86-9.8-4.23-14.71-1.77-6.28-3.47-12.57-5.09-18.88-24.34-94.39-50.89-189.39-108.44-269.71-.24-.42-.51-.89-.84-1.42,0-.02-.02-.05-.04-.07-1.17-2.45-1.53-5.62-1.81-8.39-.86-9.31-.47-15.05,3.83-20.65,38.86,103.42,109.42,99.88,134.09,95.06,4.84-.95,7.86-5.8,6.62-10.58l-48.77-187.22c-1-3.8-3.65-6.93-7.23-8.56l-140.18-63.31-.02-.02c-2.43-1.35-4.94-2.43-7.66-3.17-.51-.15-1.06-.27-1.61-.4-2.5-.91-5.07-1.86-7.68-2.74.73,2.65.46,5.69-1.44,8.54-1.22,1.82-3.03,3.27-5.11,3.98-3.58,1.19-7.12.4-9.67-1.53,1.62,2.03,2.48,4.71,2.15,7.57-.51,4.65-4.25,8.5-8.89,9.1-3.98.51-7.59-1.24-9.74-4.16.02.31.04.62.04.93,0,7.41-7.77,12.99-15.64,9.01-3.41-1.72-5.26-5.44-5.07-9.27.02-.05.02-.13.02-.18-2.1,2.59-5.42,4.16-9.1,3.81-4.25-.42-8.52-4.45-9.18-8.67-.29-1.9-.07-3.67.55-5.27-2.17,2.04-5.25,3.19-8.59,2.74-4.52-.62-8.21-4.31-8.81-8.83-.36-2.66.29-5.16,1.61-7.15-.84.29-1.59.6-2.3.91-4.25.18-8.48.35-12.74.38-3.17.05-6.2.31-9.09.82,0,0-1.09.13-2.94.37-3.07.42-8.21,1.19-14,2.32-9.31,1.86-20.24,4.69-26.82,8.65l-165.66,147.47c-3.78,3.38-4.8,8.87-2.48,13.37,3.72,7.24,10.2,18.72,19.34,31.05-2.77,1.28-5.53,2.55-8.32,3.81-8.72,3.98-19.03,8.1-28.04,7.1-17.95-2.01-30.93,7.99-46.4,13.65,3.16,6.31.24,9.12-4.42,12.72-6.75,5.29-12.68,11.9-18.14,18.59-11.79,14.51-6.86,15.07-25.96,8.03-4.67-1.72-7.23-.84-8.41,4.07-.35,1.46-1.44,2.72-2.3,4.27-4.4-1.33-8.39-2.55-12.39-3.78-.73,1.75-.47,1.17-1.22,2.92,8.96,4.96,28.34,15.53,28.34,15.53l-8.38,13.67,5.38,2.97,8.23-13.83,61.65,23.79-3.39,17.1,5.18.75,3.17-15.78s13.48,4.51,20.86,7.02c1.72.58,3.41,1.24,5.11,1.92,4.18,1.73,7.48,3.21,5.04,8.52-3.96,8.63-7.28,17.57-10.97,26.31-5.16,12.21-7.17,12.66-20.64,11.64-34.43-2.63-67.77-13.45-97.14-31.6-5.33-3.32-11.11-7.02-16.93-10.8-5.62-3.61-11.29-7.26-16.64-10.66-3.54,5.56-6.88,11.22-10.09,16.97-7.06,12.61-13.52,25.69-20.23,39.28-3.47,5.78-1.13,8.21,3.89,11.86,12.74,9.23,25.98,17.26,39.78,23.98,11.99,5.86,24.4,10.75,37.22,14.62,10.09,3.05,20.44,5.47,31.05,7.26,11.92,2.01,24.05,2.74,37.15,4.14-7.85,19.72-17.13,35.27-25.29,54.79-.55,1.3-1.09,2.63-1.62,3.96-.16.44-18.03-6.44-41.26-15.75-37.13-14.87-88.02-35.94-102.32-43.21,57.06,30.2,91.36,47.24,111.96,56.95,29.9,14.09,30.89,12.66,30.58,13.43,5.13-.55,9.8-1.11,14.27-1.62,4.6-.51,8.96-.95,13.34-1.24,9.73-.62,12.95-6.82,14.49-18.96,7.13-56.96,22.81-112.49,47.95-164.12,4.87-10,3.47-13.32-3.14-15.13-8.12-2.23-16.18-4.78-24.25-7.23-5.57-1.68-8.47-5.09-8.36-11.28.18-13.08-.16-26.18.04-39.25.04-2.46,1-5.58,2.68-7.26,10.29-10.27,21.24-19.19,36.07-22.77,4.73-1.13,9.42-2.28,14.1-3.47,20.67,23.19,50.47,44.94,88.97,43.33,80.79-3.34,99.86-151.13,99.86-151.13l39.01,42.26c8.16,16.28,11.88,32.62-1.17,49.7,2.34.95,3.78,1.61,5.26,2.17,27.22,10.13,63.51-10.62,75.96-32.92.04-.05.09-.11.13-.16.55-.97,1.02-1.9,1.46-2.85,4.16-8.41,5.75-16.79,2.28-25.96-8.54-22.7-4.09-42.59,8.38-61l40.23,41.64s-.11,19.29-2.21,36.47c.24.78.47,1.5.71,2.26-3.9,6.26-7.92,12.55-11.6,17.9-.73,1.02-2.19,1.17-3.1.31l-.35-.37c.02.11.05.18.11.29-.69-.77-1.39-1.5-2.14-2.21-5.73-5.49-15.93-15.22-21.11-18.72-1.02,7.72-1.08,15.07-2.5,21.84-.16.78-.35,1.57-.55,2.34-.15.51-.29,1.02-.46,1.51-.04.13-.07.26-.11.38-.04.13-.09.24-.13.37-.13.4-.26.78-.4,1.17-.15.4-.29.78-.42,1.17-.29.77-.58,1.53-.89,2.28-.15.38-.29.75-.46,1.11-.16.38-.33.77-.49,1.13-.33.73-.66,1.46-1,2.19-.46.97-.95,1.93-1.44,2.86-.51.93-1.02,1.86-1.55,2.77-1.08,1.82-2.21,3.59-3.39,5.29v.02c-1.22,1.72-2.48,3.36-3.8,4.94-1.33,1.59-2.72,3.12-4.16,4.6-.35.36-.71.71-1.08,1.08-.37.36-.73.73-1.11,1.08l-.02.02c-3.74,3.52-7.83,6.66-12.21,9.38l-.02.02c-1.75,1.08-3.54,2.1-5.36,3.07-3.69,1.92-7.54,3.56-11.53,4.91-12.33,4.2-26,5.66-40.14,3.98h-.02c-3.85-.47-7.72-1.17-11.62-2.1-.31-.05-.6-.13-.89-.2-.27-.07-.55-.13-.82-.2h-.02c-.26.64-.51,1.28-.78,1.93-.8,1.97-1.66,4.03-2.54,6.11l-10.86,24.91c-1.7,3.65-3.41,7.39-5.25,11.28l-.02.02c2.96,1.33,5.95,2.55,8.96,3.61,1,.36,1.99.69,2.99.99,1.06.36,2.13.68,3.19.97,7.83,2.21,15.89,3.36,24.14,3.1,1.48-.04,2.97-.15,4.49-.27h.02c.75-.07,1.51-.15,2.26-.24,2.54-.26,5-.62,7.41-1.08,1.2-.22,2.39-.47,3.56-.73,1.17-.27,2.32-.55,3.45-.86,1.13-.31,2.24-.62,3.34-.97,1.09-.35,2.19-.71,3.25-1.09,2.13-.75,4.2-1.59,6.2-2.5,1.33-.6,2.65-1.22,3.92-1.9,1.28-.67,2.54-1.35,3.76-2.06.82-.47,1.62-.95,2.41-1.46,1.19-.75,2.35-1.53,3.49-2.32,1.13-.78,2.26-1.61,3.34-2.45,20.24-15.62,31.58-38.37,37.71-55.45.44-1.22.84-2.41,1.22-3.58,1.35-4.03,2.39-7.68,3.17-10.69.26-.97.47-1.88.67-2.72.07-.29.15-.57.2-.82.16-.69.31-1.33.44-1.92.05-.29.13-.58.18-.84.13-.51.22-.97.29-1.37.04-.18.07-.36.11-.53.07-.29.13-.53.16-.69.11.38-.05,4.01-.84,9.87-.05.27-.09.58-.13.89-.07.55-.15,1.09-.24,1.66,0,.02-.02.05-.02.07-.11.88-.26,1.79-.42,2.72-.35,1.95-.73,4.07-1.17,6.31-.2,1.08-.44,2.17-.69,3.3-.02.05-.02.11-.04.18-.33,1.51-.67,3.07-1.08,4.65-.02.04-.02.06-.02.07-.51,2.06-1.06,4.2-1.66,6.39-.6,2.17-1.26,4.42-1.99,6.71-.29.91-.58,1.82-.89,2.75-3.98,12.04-9.62,25.14-17.52,37.5-.47.75-.97,1.5-1.48,2.24-3.25,4.89-6.9,9.67-10.97,14.2-1.17,1.3-2.37,2.59-3.61,3.83-.38.4-.78.78-1.2,1.2l-.69.69c-5.69,5.51-12.12,10.53-19.34,14.78-.46.27-.91.55-1.39.8-.62.36-1.26.71-1.92,1.08-1.66.89-3.36,1.75-5.09,2.55-4.25,1.99-8.74,3.72-13.5,5.18-.91.27-1.84.55-2.79.8-.35.11-.71.2-1.08.29-1.17.31-2.35.6-3.54.88-4.82,1.09-9.85,1.92-15.16,2.41-6.92.6-13.92.13-20.98-.78-2.04-.27-4.07-.58-6.09-.89-2.04-.33-4.09-.68-6.11-1-4.09-.69-8.17-1.4-12.24-2.01-.18.33-.38.67-.6,1.04v.02c-.35.57-.71,1.17-1.09,1.84-.26.46-.53.91-.84,1.4t0,.02c-.15.24-.31.49-.46.75-.46.77-.95,1.57-1.46,2.43v.02c-.69,1.13-1.42,2.35-2.19,3.61-.2.33-.4.66-.58.99-.38.64-.78,1.3-1.2,1.97-.2.35-.42.69-.62,1.04-.42.69-.84,1.39-1.28,2.1-.22.36-.44.73-.64,1.08-.44.71-.88,1.44-1.33,2.17-8.72,14.34-19.18,31.35-23.67,38.39-.11.16-.22.35-.33.51v.02c2.04.22,4.09.42,6.11.57,3.05.24,6.06.44,9.03.57,21.51.88,41.56-1.44,60.29-6.84,1.68-.49,3.36-1.02,5.02-1.55.84-.26,1.66-.55,2.5-.82,4.16-1.4,8.27-2.99,12.28-4.73,2.43-1.04,4.82-2.13,7.19-3.28,1.57-.77,3.14-1.55,4.69-2.37,3.89-2.03,7.72-4.23,11.5-6.57,2.24-1.4,4.47-2.86,6.68-4.4,2.23-1.51,4.42-3.08,6.59-4.71,2.88-2.17,5.71-4.43,8.52-6.81,2.1-1.75,4.2-3.58,6.26-5.47,3.43-3.12,6.81-6.4,10.13-9.83,5.97-6.17,11.73-12.81,17.32-19.92-.09.44-.26.99-.49,1.64-.18.47-.4,1.02-.66,1.62-.42,1-.95,2.15-1.57,3.43-.37.77-.77,1.59-1.22,2.43-.44.86-.89,1.75-1.4,2.68-.33.62-.67,1.24-1.04,1.9-.8,1.44-1.68,2.97-2.61,4.58-.31.53-.62,1.06-.95,1.61l-.66,1.09c-.44.73-.89,1.46-1.35,2.23-3.9,6.35-8.54,13.28-13.5,19.91-1.75,2.34-3.54,4.63-5.36,6.86-1.22,1.48-2.45,2.92-3.67,4.32-.91,1.06-1.86,2.08-2.79,3.07-.93.99-1.86,1.93-2.79,2.86-.62.62-1.24,1.22-1.86,1.81-6.79,6.42-13.76,12.33-20.93,17.68-2.86,2.15-5.75,4.21-8.69,6.17l-.02.02c-1.84,1.22-3.7,2.43-5.57,3.56-.88.57-1.75,1.09-2.63,1.61-1.9,1.13-3.79,2.23-5.71,3.28-1.19.66-2.37,1.28-3.56,1.9-3.56,1.84-7.17,3.56-10.84,5.13-1.22.53-2.46,1.04-3.69,1.51-2.46.99-4.96,1.9-7.46,2.76-3.76,1.28-7.57,2.41-11.44,3.39h-.02c-1.75.44-3.52.86-5.29,1.24-2.14.46-4.27.86-6.44,1.22-19.34,3.23-39.98,2.66-62.09-2.35h-.02c-3.85,5.44-7.81,10.89-11.88,16.35-6.79,9.1-13.89,18.23-21.31,27.33-2.97,3.63-6,7.26-9.07,10.89-4.62,5.44-9.34,10.86-14.2,16.24-3.23,3.59-6.51,7.17-9.85,10.75-1.66,1.77-3.34,3.56-5.04,5.33.27.35.6.68,1.02,1.02.4.33.88.67,1.44,1.02.55.35,1.17.69,1.86,1.08.35.18.71.37,1.09.57.18.09.38.18.58.29.2.11.4.22.62.33,1.06.53,2.13,1.04,3.21,1.53,1.08.49,2.15.99,3.21,1.46,3.58,1.59,7.17,3.01,10.77,4.29,1.42.51,2.86.99,4.31,1.46,1.44.47,2.88.91,4.32,1.33,34.12,9.98,68.86,7.28,103.78-4,37.64-12.19,67.95-33.86,94-60.92,2.37-2.45,4.71-4.96,7.01-7.5,2.3-2.55,4.56-5.13,6.81-7.75,6.7-7.88,13.14-16.09,19.36-24.56,1.24-1.7,2.46-3.39,3.69-5.13,2.43-3.43,4.8-6.9,7.17-10.38,1.19-1.72,2.37-3.43,3.58-5.15,0,.05-.02.15-.04.27-.02.02-.02.04-.02.05-.02.05-.04.11-.06.16-.04.09-.07.18-.11.29-.09.2-.2.46-.33.73-.11.27-.24.57-.4.89-.4.84-.91,1.9-1.57,3.14-.38.73-.8,1.53-1.28,2.39,0,0,0,.02-.02.02-.62,1.15-1.31,2.41-2.1,3.78-.38.69-.8,1.4-1.24,2.13-.42.73-.86,1.48-1.31,2.26-.47.78-.97,1.59-1.48,2.43-.49.82-1,1.66-1.55,2.52-11.33,18.23-30.78,45.56-57.15,71.14-1.24,1.2-2.5,2.41-3.8,3.61-2.57,2.43-5.22,4.84-7.92,7.21-1.33,1.17-2.7,2.34-4.07,3.5-1,.84-2.01,1.7-3.03,2.54-1.79,1.46-3.59,2.92-5.44,4.36-2.88,2.24-5.82,4.45-8.81,6.62-2.24,1.62-4.52,3.21-6.84,4.76-3.08,2.06-6.22,4.07-9.41,6.02-2.41,1.46-4.84,2.88-7.3,4.25-1.64.91-3.3,1.81-4.96,2.68-1.68.88-3.36,1.73-5.05,2.57-.95.47-1.92.93-2.86,1.39-1.93.91-3.87,1.79-5.84,2.65-1.95.84-3.94,1.66-5.93,2.46-2.01.78-4.01,1.55-6.04,2.28-1.02.36-2.04.71-3.07,1.06-10.91,3.7-22.3,6.44-34.12,7.94-1.97.26-3.96.47-5.97.66-29.08,2.66-60.78-2.12-94.7-17.97-2.43-2.01-4.94-3.94-7.77-6.13-3.01,2.85-6.04,5.67-9.12,8.48-1.35,1.24-2.7,2.46-4.07,3.69-1.73,1.59-3.5,3.16-5.29,4.71-1.79,1.57-3.59,3.14-5.4,4.69-.6.55-1.22,1.06-1.82,1.57-1.24,1.08-2.48,2.14-3.74,3.18-1.5,1.26-3.01,2.52-4.52,3.76-.82.68-1.62,1.35-2.45,2.01-1.5,1.24-3.01,2.46-4.52,3.65-2.86,2.32-5.77,4.58-8.69,6.84-.36.29-.75.58-1.13.88-2.52,1.93-5.07,3.85-7.63,5.75-2.3,1.72-4.62,3.41-6.95,5.07-1.17.86-2.35,1.7-3.54,2.54-1.28.91-2.55,1.81-3.83,2.7-.07.05-.15.11-.24.15v.02c-1.31.91-2.65,1.84-3.98,2.74-1.26.88-2.52,1.73-3.78,2.57-1.02.69-2.06,1.39-3.1,2.08-1.59,1.06-3.17,2.1-4.8,3.14-1.3.86-2.59,1.7-3.9,2.52-2.41,1.55-4.82,3.07-7.26,4.56-2.72,1.68-5.46,3.34-8.23,5h-.02c-1.79,1.06-3.56,2.1-5.35,3.14-.6.36-1.2.71-1.82,1.06-.51.29-1.02.58-1.55.88-.73.42-1.46.84-2.21,1.26-2.21,1.24-4.42,2.48-6.64,3.69,1.42.71,2.96,1.44,4.58,2.17,1.61.75,3.3,1.48,5.09,2.21,2.68,1.09,5.57,2.21,8.61,3.32,2.01.73,4.11,1.46,6.28,2.17h.02c2.17.73,4.4,1.42,6.71,2.12,6.04,1.82,12.5,3.56,19.32,5.13,4.65,1.09,9.49,2.1,14.43,3.01,1.86.35,3.76.67,5.66.99,3.81.64,7.68,1.22,11.6,1.72.37.05.73.09,1.09.13,1.42.18,2.86.35,4.32.51,2.88.31,5.8.58,8.72.84h.04c1.48.13,2.96.22,4.43.31,1.48.11,2.96.18,4.43.26,1.2.07,2.41.11,3.61.16.66.04,1.33.05,1.99.07,1.02.02,2.04.05,3.08.07,2.52.04,5.04.05,7.55.02,1.48-.02,2.97-.04,4.45-.07,1.3-.04,2.59-.09,3.89-.15h.05c1.86-.09,3.7-.2,5.57-.33h.02c1.86-.13,3.72-.27,5.58-.46h.02c2.14-.2,4.25-.44,6.37-.69,1.77-.24,3.54-.47,5.31-.75h.02c5.6-.86,11.17-1.95,16.62-3.3,11.64-2.04,23.32-5.22,34.76-9.18,57.2-19.71,108.76-58.68,123.95-71.69,50.3-43.02,86.58-96.85,113.03-157.28,17.33-39.59,27.83-80.9,26.68-124.46-.44-16.62-2.85-33.24-4.43-50.78.35.71.64,1.3.91,1.84.09.18.16.35.26.51.16.33.31.64.46.93.07.15.13.29.2.44.07.15.15.29.2.44,8.98,19.65,12.46,73.04,2.37,137.14-.62,3.9-1.28,7.83-1.99,11.79-.73,3.98-1.5,7.97-2.32,12.02-.82,4.03-1.7,8.08-2.63,12.17v.02c-.93,4.09-1.92,8.19-2.96,12.32-3.67,14.45-8.03,29.14-13.16,43.85-1.48,4.2-3.01,8.39-4.6,12.59v.02c-1.61,4.2-3.27,8.38-5,12.55-1.73,4.18-3.54,8.36-5.4,12.52-2.81,6.22-5.77,12.43-8.89,18.59-4.16,8.19-8.61,16.31-13.36,24.29-4.76,7.99-9.82,15.84-15.18,23.52-4.03,5.75-8.25,11.4-12.63,16.95-2.94,3.7-5.95,7.35-9.03,10.93-16.04,18.61-34.34,35.73-55.14,50.56-5.27,3.8-10.73,7.44-16.33,10.91-3.23,2.1-6.5,4.16-9.76,6.19-1.72,1.04-3.45,2.08-5.18,3.1-3.78,2.28-7.61,4.47-11.46,6.59-29.56,16.29-60.65,28.39-94,34.54-.89.16-1.79.33-2.66.47-1.55.27-3.08.53-4.62.77-1.13.18-2.26.35-3.39.49-3.69.55-7.39,1-11.13,1.39-.06,0-.13.02-.18.02-2.3.2-4.51.99-6.75,1.51,2.34,1.55,33.77,10.4,70.59,18.61,10,2.54,19.87,4.73,29.65,6.62,3.67.71,7.35,1.26,11.02,1.62,20.22,3.61,39.54,6.22,54.28,6.6,4.07.11,9.43-1.64,12.17-4.47,14.69-15.2,29.6-30.34,43.01-46.69.4-.47.78-.93,1.15-1.39,7.86-9.69,15.22-19.65,22.08-29.87,7.48-11.09,14.4-22.5,20.82-34.14,21.51-38.86,37.7-80.45,51.47-123.09,16.48-50.98,26-103.49,27.53-157.19.47-16.77.05-33.52.05-49.43.57,1.13,2.03,3.34,2.79,5.78,10.31,33.3,22.31,66.14,30.38,99.97,11.59,48.55,19.21,97.74,25.36,147.17,1.35,10.86,2.63,21.73,3.85,32.62,2.99,26.49,5.73,53.02,8.56,79.53.05.53.11,1.08.16,1.61.82,8.45,1.84,23.63,2.79,36.11,12.43-5.33,23.59-10.66,33.39-15.69.27-.13.55-.27.82-.42,19.67-9.76,41.13-22.19,47.51-28.32.02-.04.04-.04.05-.05l.02-.02c-20-19.91-33.76-43.9-42.77-70.28-.11-.33-.22-.67-.33-1Zm-571.6-285.66c-17.43-6.06-33.83-11.73-51.09-17.7,6.49-13.79,16.31-23.01,26.71-31.58,1.5-1.24,5.42-.2,8.03.57,7.83,2.32,15.56,5,24.47,7.92-2.46,12.37-5.13,25.84-8.12,40.8Zm10.95,2.1v2.06l-6.48-2.06s.26-1.37.69-3.48v-.04c.05-.55.13-1.15.29-1.86,1.42-6.55,2.61-13.14,4.73-19.65.27-.88.53-1.7.77-2.37v27.41Zm434.15,299.11c-3.63,12.26-7.55,24.41-11.81,36.46-12.83,36.27-28.52,71.4-47.66,104.29,16.22-2.1,31.77-4.89,46.6-8.14.15-.4.31-.82.47-1.24,1.81-1.09,3.54-3.83,4.21-5.93,2.83-8.52,5.42-17.15,7.43-25.89.88-3.87,1.75-7.74,2.63-11.6.42-1.93.88-3.87,1.31-5.82,1.3-5.8,2.59-11.6,3.89-17.41.84-3.87,1.7-7.75,2.54-11.64,1.66-7.74,3.3-15.49,4.87-23.26.47-2.34.93-4.65,1.39-6.99.57-2.81,1.11-5.62,1.64-8.45.58-3.05,1.15-6.09,1.72-9.14.57-3.05,1.11-6.09,1.64-9.14.53-2.99,1.04-5.97,1.53-8.94.37-2.24.73-4.49,1.09-6.73.02-.2.05-.42.09-.62.15-.88.27-1.73.4-2.61.53-3.34,1.02-6.66,1.5-10,.35-2.32.66-4.65.97-6.99.09-.62.18-1.24.26-1.88.02-.13.04-.27.05-.4.02-.16.05-.35.07-.51.24-1.82.47-3.65.69-5.49.04-.26.07-.53.11-.78.13-1.09.27-2.19.38-3.3.04-.35.09-.71.13-1.06.2-1.64.38-3.28.57-4.93.15-1.24.27-2.48.4-3.72.18-1.57.35-3.16.49-4.76.11-1.11.22-2.23.33-3.36.11-1.3.24-2.61.35-3.9.13-1.31.24-2.61.33-3.92.04-.4.07-.82.11-1.24.24-2.92.44-5.84.64-8.76,1.51-22.94.24-46.07.24-71.12-6,52.42-16.04,106.47-31.6,158.94Zm-122.08-722.33c-10.89,11.51-21.91,26.26-30.93,44.81-2.86,4.89-4.52,9.78-6.73,14.71.71.42,1.35.8,2.03,1.22h.04c1.84-1.66,3.7-3.32,5.64-5.05.53-.49,1.09-.99,1.66-1.48,0-.02,0-.04.05-.04.91-.82,1.84-1.66,2.83-2.55v2.5c0,1.37-.02,2.74-.02,4.09v.11c.64,8.63,5.09,15.34,10.47,15.34,5.84,0,10.56-7.83,10.56-17.46,0-1.72-.15-3.38-.44-4.94,5.33,3.8,8.43,10.51,6.97,17.79-1.42,7.13-7.41,12.72-14.62,13.7-5.16.71-9.96-.84-13.56-3.78-.71,14.38-1.7,27.75-1.7,27.75v.04c-1.28,6.68-3.96,12.04-10.09,15.14,4.74.91,8.37,5.13,8.37,10.16,0,1.3-.24,2.52-.67,3.65,1.86-1.75,4.34-2.85,7.12-2.85,5.73,0,10.36,4.63,10.36,10.38,0,.13,0,.27-.02.4,1.92-2.35,4.82-3.85,8.06-3.85,3.43,0,6.46,1.64,8.34,4.23-.02-.31-.04-.62-.04-.93,0-5.71,4.65-10.35,10.36-10.35,2.32,0,4.47.77,6.19,2.06-1.39-1.75-2.19-3.96-2.19-6.35,0-3.23,1.48-6.13,3.81-8.06h-.49c-.29,0-.57.04-.86.05-.55.04-1.06.05-1.57.02h-.33c-9.16-.8-11.17-13.83-10.69-27.44.46-4.52,1.09-9.07,1.53-13.59-.2.6-.42,1.13-.62,1.72.11-.99.22-1.97.35-2.92.05.27.15.53.16.82l.15-.22c.42-3.32.82-6.6,1.33-10.6.13-.07.18-.09.33-.16,2.06,1.15,3.36,1.93,4.74,2.54,8.69,3.83,17.19,8.23,26.17,11.24,1.61.55,3.07.88,4.36,1,.27.04.55.04.78.04,5.53.24,8.16-3.45,8.9-10.86.22-2.08.44-4.65,1.7-5.98,6-6.31,7.19-12.35,3.17-20.16,2.74-2.41,5.57-4.85,10.33-9.01-2.17-.97-3.78-1.44-5.15-2.37-8.08-5.4-10.6-12.24-8.27-21.09.26-.95.55-1.92.91-2.9,3.16-8.65,3.25-17.02,1.35-25.22-1.3-5.55-3.52-11.02-6.31-16.4-1.64-3.16-3.3-4.74-5.46-4.63-1.17.07-2.45.58-3.94,1.64-3.27,1.75-9.73,5.27-17.83,10.98-7.83,5.51-17.19,13.1-26.64,23.12Zm-223.46,2.76c2.9,9,6.9,17.35,11.86,24.94,18.56,28.56,50.49,46.42,88.8,47.22,23.25.46,45.14-4.8,63.41-21.18,3.52.6,7.65,1.33,11.13,1.93,5.75-22.31,15.02-41.53,27.28-58.24,6.59-9.03,14.05-17.32,22.31-24.96,12.35-11.44,26.44-21.46,42.04-30.36-1.15-2.1-2.12-3.94-3.14-5.78-4.67-4.18-5.49-12.95-21.2-6-9.18,3.78-31.29,11.51-52.09,38.72-5.66,7.37-11.2,16.18-16.38,26.73-7.39,15.05-13.99,33.68-19.01,56.75-5.53-2.34-7.43-6.37-7.7-12.04,2.39-17.19,6.28-31.99,11.11-44.72,3.96-10.46,8.58-19.52,13.54-27.39,22.42-35.42,52-46.14,61.89-48.33,6.46-1.72,9.65-1.66,17.86.51-7.01-7.48-13.32-10.42-20.55-11.35-16.4-2.12-28.59,1.09-44.87,13.58-9.52,8.65-23.79,21.15-36.25,45.82-4.03,7.97-7.88,17.24-11.31,28.04-2.77,8.67-5.27,18.32-7.39,29.12-.77-.09-2.99-15.51-2.48-28.32.07-1.66.18-3.27.35-4.8,1.13-8.08,2.92-15.8,5.33-23.17,6.39-19.54,17.3-36.55,32.73-51.22,15.6-14.83,32.77-24.63,57.84-20.96,3.96.47,9.71,4.78,10.44,5.49-9.49-13.7-23.67-14.6-24.65-14.94-10.44-11.29-56.62-75.89-152.34-30.62-42.81,21.06-66.67,69.23-64.01,116.06.6,10.42,2.46,20.29,5.46,29.49Zm233,76.1c-.04.18-.05.38-.07.58.07-.15.11-.31.15-.46l-.07-.13Zm-475.35,357.93c7.48-11.8,15.2-23.99,24.49-34.41-.24-4.87-.33-11.68-.24-20.27v-.82c0-146.24,81.25-278.11,212.11-344.32-3.23-5.46-8.83-15.31-12.86-24.43h-.02c-38.88,19.72-74.43,45.52-105.61,76.73-78.02,78.02-120.99,181.73-120.99,292.03,0,9.96.97,38.48,2.01,57.27.36-.58.75-1.19,1.11-1.77Zm143.25,258.16c5.55-2.9,19.14-11.19,23.67-16.06-9.05-7.55-17.94-15.71-26.46-24.27-5,1.82-16.06,5.42-30.89,7.54,4.03,4.4,8.16,8.7,12.33,12.86,6.71,6.75,13.89,13.43,21.35,19.93Z"/>
</svg>