<?xml version="1.0" encoding="UTF-8"?>
<svg id="Calque_1" data-name="Calque 1" xmlns="http://www.w3.org/2000/svg" xmlns:xlink="http://www.w3.org/1999/xlink" viewBox="0 0 1951.71 1238.09">
  <defs>
    <style>
      .cls-1 {
        font-family: JosefinSansRoman-Regular, 'Josefin Sans';
        font-size: 103.45px;
        font-variation-settings: 'wght' 400;
      }

      .cls-2 {
        font-family: Mogilte, Mogilte;
        font-size: 167.37px;
      }

      .cls-3 {
        fill: url(#Dégradé_sans_nom_846);
      }

      .cls-4 {
        letter-spacing: -.07em;
      }

      .cls-5 {
        letter-spacing: 0em;
      }

      .cls-6 {
        fill: url(#Dégradé_sans_nom_846-2);
      }

      .cls-7 {
        letter-spacing: -.02em;
      }

      .cls-8 {
        letter-spacing: 0em;
      }
    </style>
    <linearGradient id="Dégradé_sans_nom_846" data-name="Dégradé sans nom 846" x1="922.15" y1="920.77" x2="1168.25" y2="920.77" gradientUnits="userSpaceOnUse">
      <stop offset="0" stop-color="#e900dd"/>
      <stop offset="1" stop-color="#8300bf"/>
    </linearGradient>
    <linearGradient id="Dégradé_sans_nom_846-2" data-name="Dégradé sans nom 846" x1="639.26" y1="417.52" x2="1238.82" y2="417.52" xlink:href="#Dégradé_sans_nom_846"/>
  </defs>
  <g>
    <path class="cls-3" d="m1045.2,797.72c-67.96,0-123.05,55.09-123.05,123.05s55.09,123.05,123.05,123.05,123.05-55.09,123.05-123.05-55.09-123.05-123.05-123.05Zm-1.63,19.41l16.72,32.98h-3.84l-28.46-18.75,15.58-14.23Zm13.33,175.32v-19.66c-5.87,14.23-17.17,21.91-34.79,21.91-23.27,0-38.41-13.55-38.41-30.95,0-24.17,29.37-35.69,55.58-35.69h17.62v-13.56c0-26.88-7.68-38.18-16.49-38.18-9.71,0-13.33,13.1-14.68,19.66-8.82,41.11-37.06,29.14-32.31,4.97,3.39-16.72,20.33-29.37,47.44-29.37,29.37,0,54,15.13,54,52.18v40.44c0,8.36,3.61,18.3,9.03,24.63l2.94,3.62h-49.93Zm-35.24-28.92c0,12.88,6.33,21.91,14.91,21.91,10.39,0,20.33-13.33,20.33-41.34v-11.3h-5.19c-18.3,0-30.05,13.11-30.05,30.73Z"/>
    <path class="cls-6" d="m1046.48,185.63c103.64,39.47,173.28,140.39,173.28,251.13,0,60.73-20.91,120.22-58.9,167.67.74,4.02,3.99,17.57,6.11,22.54h0s.01,0,.01,0c46.33-52.43,71.84-119.99,71.84-190.21,0-76.85-29.92-149.1-84.26-203.44-30.68-30.67-66.72-53.49-107.13-67.8,1.12,6.32-.55,15.34-1.56,19.87l.61.24Zm116.79,477.88c-2.1-6.25-4.17-12.52-6.22-18.8-.67-2.08-1.35-4.18-2.02-6.28h0c-2.24-7-4.4-14.02-6.48-21.06h0c-1-3.42-2-6.84-2.95-10.26-1.23-4.37-2.41-8.76-3.55-13.16-16.96-65.75-35.45-131.94-75.54-187.89-.17-.29-.36-.62-.58-.99,0-.01-.01-.04-.03-.05-.81-1.7-1.07-3.91-1.26-5.85-.6-6.48-.33-10.49,2.67-14.39,27.07,72.05,76.23,69.58,93.41,66.22,3.37-.66,5.48-4.04,4.61-7.37l-33.98-130.43c-.7-2.64-2.54-4.83-5.03-5.96l-97.66-44.11h-.01c-1.69-.95-3.44-1.7-5.34-2.22-.36-.1-.74-.19-1.12-.28-1.74-.64-3.53-1.3-5.35-1.91.51,1.84.32,3.97-1,5.95-.85,1.27-2.11,2.28-3.56,2.77-2.49.83-4.96.28-6.74-1.07,1.13,1.41,1.73,3.28,1.5,5.28-.36,3.24-2.96,5.92-6.19,6.34-2.77.36-5.29-.86-6.79-2.9.01.22.03.43.03.65,0,5.16-5.41,9.05-10.89,6.28-2.38-1.19-3.66-3.79-3.53-6.46.01-.04.01-.09.01-.13-1.46,1.8-3.78,2.9-6.34,2.66-2.96-.29-5.94-3.1-6.39-6.04-.2-1.32-.05-2.56.38-3.67-1.51,1.42-3.66,2.22-5.99,1.91-3.15-.43-5.72-3-6.14-6.15-.25-1.86.2-3.6,1.12-4.98-.58.2-1.11.42-1.6.64-2.96.13-5.91.24-8.87.27-2.21.04-4.32.22-6.33.57,0,0-.76.09-2.05.25-2.14.29-5.72.83-9.75,1.61-6.48,1.3-14.1,3.27-18.69,6.02l-115.4,102.73c-2.63,2.35-3.34,6.18-1.73,9.32,2.59,5.05,7.11,13.04,13.47,21.63-1.93.89-3.85,1.78-5.8,2.66-6.08,2.77-13.26,5.64-19.54,4.94-12.51-1.4-21.54,5.57-32.32,9.51,2.2,4.4.17,6.36-3.08,8.86-4.7,3.69-8.83,8.29-12.63,12.95-8.21,10.11-4.78,10.5-18.09,5.59-3.25-1.2-5.03-.58-5.86,2.83-.24,1.02-1,1.89-1.6,2.97-3.06-.93-5.85-1.78-8.63-2.63-.51,1.22-.33.81-.85,2.03,6.24,3.46,19.74,10.82,19.74,10.82l-5.83,9.52,3.75,2.07,5.73-9.63,42.95,16.58-2.36,11.91,3.61.52,2.21-10.99s9.39,3.14,14.53,4.89c1.19.41,2.38.86,3.56,1.33,2.91,1.21,5.21,2.24,3.51,5.94-2.76,6.01-5.07,12.24-7.64,18.33-3.6,8.5-5,8.82-14.38,8.11-23.99-1.83-47.21-9.37-67.67-22.02-3.71-2.31-7.74-4.89-11.8-7.52-3.92-2.52-7.87-5.06-11.59-7.42-2.47,3.88-4.79,7.82-7.03,11.82-4.92,8.78-9.42,17.9-14.1,27.37-2.42,4.03-.79,5.72,2.71,8.26,8.87,6.43,18.1,12.02,27.71,16.7,8.35,4.08,16.99,7.49,25.93,10.18,7.03,2.12,14.24,3.81,21.63,5.06,8.3,1.4,16.75,1.91,25.88,2.89-5.47,13.74-11.94,24.57-17.62,38.17-.38.9-.76,1.83-1.13,2.76-.11.31-12.56-4.49-28.74-10.97-25.87-10.36-61.32-25.04-71.28-30.1,39.75,21.04,63.64,32.91,77.99,39.67,20.83,9.81,21.52,8.82,21.3,9.36,3.57-.38,6.83-.78,9.94-1.13,3.2-.36,6.24-.66,9.29-.86,6.78-.43,9.02-4.75,10.09-13.21,4.97-39.68,15.89-78.36,33.4-114.34,3.39-6.97,2.41-9.28-2.19-10.54-5.66-1.55-11.27-3.33-16.89-5.03-3.88-1.17-5.9-3.55-5.82-7.86.13-9.11-.11-18.24.03-27.34.03-1.72.7-3.89,1.87-5.06,7.17-7.16,14.8-13.37,25.13-15.86,3.29-.79,6.56-1.59,9.83-2.41,14.4,16.16,35.16,31.31,61.98,30.19,56.28-2.33,69.57-105.28,69.57-105.28l27.18,29.44c5.68,11.34,8.27,22.73-.81,34.62,1.63.66,2.63,1.12,3.66,1.51,18.96,7.05,44.25-7.4,52.92-22.93.03-.04.06-.08.09-.11.38-.67.71-1.32,1.02-1.98,2.9-5.86,4-11.69,1.59-18.09-5.95-15.81-2.85-29.67,5.83-42.49l28.03,29.01s-.08,13.44-1.54,25.41c.17.55.33,1.04.5,1.58-2.72,4.36-5.52,8.74-8.08,12.47-.51.71-1.53.81-2.16.22l-.24-.25c.01.08.04.13.08.2-.48-.53-.97-1.04-1.49-1.54-3.99-3.83-11.1-10.6-14.71-13.04-.71,5.38-.75,10.5-1.74,15.21-.11.55-.24,1.09-.38,1.63-.1.36-.2.71-.32,1.05-.03.09-.05.18-.08.27-.03.09-.06.17-.09.25-.09.28-.18.55-.28.81-.1.28-.2.55-.29.81-.2.53-.41,1.07-.62,1.59-.1.27-.2.52-.32.78-.11.27-.23.53-.34.79-.23.51-.46,1.02-.7,1.53-.32.67-.66,1.35-1,2-.36.65-.71,1.3-1.08,1.93-.75,1.27-1.54,2.5-2.36,3.69h0c-.85,1.21-1.73,2.35-2.64,3.46-.93,1.11-1.89,2.17-2.9,3.2-.24.25-.5.5-.75.75-.25.25-.51.51-.78.75h-.01c-2.61,2.47-5.45,4.65-8.5,6.55h-.01c-1.22.76-2.47,1.47-3.74,2.15-2.57,1.33-5.25,2.48-8.03,3.42-8.59,2.92-18.11,3.94-27.96,2.77h-.01c-2.68-.33-5.38-.81-8.1-1.46-.22-.04-.42-.09-.62-.14-.19-.05-.38-.09-.57-.14h-.01c-.18.45-.36.89-.55,1.35-.56,1.37-1.16,2.81-1.77,4.26l-7.56,17.35c-1.18,2.54-2.38,5.15-3.66,7.86h-.01c2.06.94,4.14,1.79,6.24,2.53.7.25,1.39.48,2.08.69.74.25,1.49.47,2.22.67,5.45,1.54,11.07,2.34,16.82,2.16,1.03-.03,2.07-.1,3.13-.19h.01c.52-.05,1.05-.1,1.58-.17,1.77-.18,3.48-.43,5.16-.75.84-.15,1.67-.33,2.48-.51.81-.19,1.61-.38,2.4-.6.79-.22,1.56-.43,2.33-.67.76-.24,1.53-.5,2.26-.76,1.49-.52,2.92-1.11,4.32-1.74.93-.42,1.84-.85,2.73-1.32.89-.47,1.77-.94,2.62-1.44.57-.33,1.13-.66,1.68-1.02.83-.52,1.64-1.07,2.43-1.61.79-.55,1.58-1.12,2.33-1.7,14.1-10.88,22-26.73,26.27-38.63.3-.85.58-1.68.85-2.49.94-2.81,1.67-5.35,2.21-7.45.18-.67.33-1.31.47-1.89.05-.2.1-.39.14-.57.11-.48.22-.93.31-1.33.04-.2.09-.41.13-.58.09-.36.15-.67.2-.95.03-.13.05-.25.08-.37.05-.2.09-.37.11-.48.08.27-.04,2.8-.58,6.88-.04.19-.06.41-.09.62-.05.38-.1.76-.17,1.16,0,.01-.01.04-.01.05-.08.61-.18,1.25-.29,1.89-.24,1.36-.51,2.83-.81,4.4-.14.75-.31,1.51-.48,2.3-.01.04-.01.08-.03.13-.23,1.06-.47,2.14-.75,3.24-.01.03-.01.04-.01.05-.36,1.44-.74,2.92-1.16,4.45-.42,1.51-.88,3.08-1.39,4.68-.2.64-.41,1.27-.62,1.92-2.77,8.39-6.7,17.52-12.2,26.12-.33.52-.67,1.04-1.03,1.56-2.26,3.41-4.8,6.74-7.64,9.89-.81.9-1.65,1.81-2.52,2.67-.27.28-.55.55-.84.84l-.48.48c-3.97,3.84-8.44,7.33-13.47,10.3-.32.19-.64.38-.97.56-.43.25-.88.5-1.33.75-1.16.62-2.34,1.22-3.55,1.78-2.96,1.39-6.09,2.59-9.41,3.61-.64.19-1.28.38-1.94.56-.24.08-.5.14-.75.2-.81.22-1.64.42-2.47.61-3.36.76-6.86,1.33-10.56,1.68-4.82.42-9.7.09-14.62-.55-1.42-.19-2.83-.41-4.25-.62-1.42-.23-2.85-.47-4.26-.7-2.85-.48-5.69-.98-8.53-1.4-.13.23-.27.47-.42.72h0c-.24.41-.5.83-.76,1.3-.18.32-.37.64-.58.98t0,.01c-.1.17-.22.34-.32.52-.32.53-.66,1.09-1.02,1.69h0c-.48.8-.99,1.65-1.53,2.53-.14.23-.28.46-.41.69-.27.45-.55.9-.84,1.37-.14.24-.29.48-.43.72-.29.48-.58.97-.89,1.46-.15.25-.31.51-.44.75-.31.5-.61,1-.93,1.51-6.08,9.99-13.36,21.84-16.49,26.74-.08.11-.15.24-.23.36h0c1.42.17,2.85.31,4.26.41,2.12.17,4.22.3,6.29.39,14.99.61,28.96-1,42-4.77,1.17-.34,2.34-.71,3.5-1.08.58-.18,1.16-.38,1.74-.57,2.9-.98,5.76-2.08,8.55-3.29,1.69-.72,3.36-1.49,5.01-2.29,1.09-.53,2.19-1.08,3.27-1.65,2.71-1.41,5.38-2.95,8.01-4.58,1.56-.98,3.11-2,4.65-3.06,1.55-1.05,3.08-2.15,4.59-3.28,2.01-1.51,3.98-3.09,5.94-4.74,1.46-1.22,2.92-2.49,4.36-3.81,2.39-2.17,4.74-4.46,7.05-6.85,4.16-4.3,8.17-8.92,12.06-13.88-.06.31-.18.69-.34,1.14-.13.33-.28.71-.46,1.13-.29.7-.66,1.5-1.09,2.39-.25.53-.53,1.11-.85,1.69-.31.6-.62,1.22-.98,1.87-.23.43-.47.86-.72,1.32-.56,1-1.17,2.07-1.82,3.19-.22.37-.43.74-.66,1.12l-.46.76c-.31.51-.62,1.02-.94,1.55-2.72,4.42-5.95,9.25-9.41,13.87-1.22,1.63-2.47,3.23-3.74,4.78-.85,1.03-1.7,2.03-2.55,3.01-.64.74-1.3,1.45-1.94,2.14-.65.69-1.3,1.35-1.94,2-.43.43-.86.85-1.3,1.26-4.73,4.47-9.58,8.59-14.58,12.32-2,1.5-4,2.94-6.05,4.3h-.01c-1.28.86-2.58,1.7-3.88,2.49-.61.39-1.22.76-1.83,1.12-1.32.79-2.64,1.55-3.98,2.29-.83.46-1.65.89-2.48,1.32-2.48,1.28-5,2.48-7.55,3.57-.85.37-1.72.72-2.57,1.05-1.72.69-3.46,1.32-5.2,1.92-2.62.89-5.27,1.68-7.97,2.36h-.01c-1.22.31-2.45.6-3.69.86-1.49.32-2.97.6-4.49.85-13.47,2.25-27.85,1.86-43.26-1.64h-.01c-2.68,3.79-5.44,7.59-8.27,11.39-4.73,6.34-9.67,12.7-14.85,19.04-2.07,2.53-4.18,5.06-6.32,7.59-3.22,3.79-6.51,7.56-9.89,11.31-2.25,2.5-4.54,5-6.86,7.49-1.16,1.23-2.33,2.48-3.51,3.71.19.24.42.47.71.71.28.23.61.47,1,.71.38.24.81.48,1.3.75.24.13.5.25.76.39.13.06.27.13.41.2.14.08.28.15.43.23.74.37,1.49.72,2.24,1.07.75.34,1.5.69,2.24,1.02,2.49,1.11,5,2.1,7.5,2.99.99.36,2,.69,3,1.02,1,.33,2.01.64,3.01.93,23.77,6.95,47.97,5.07,72.3-2.78,26.22-8.49,47.34-23.59,65.49-42.44,1.65-1.7,3.28-3.46,4.88-5.22,1.6-1.78,3.18-3.57,4.74-5.4,4.67-5.49,9.15-11.21,13.49-17.11.86-1.18,1.72-2.36,2.57-3.57,1.69-2.39,3.34-4.8,5-7.23.83-1.19,1.65-2.39,2.49-3.58,0,.04-.01.1-.03.19-.01.01-.01.03-.01.04-.01.04-.03.08-.04.11-.03.06-.05.13-.08.2-.06.14-.14.32-.23.51-.08.19-.17.39-.28.62-.28.58-.64,1.32-1.09,2.19-.27.51-.56,1.07-.89,1.67,0,0,0,.01-.01.01-.43.8-.92,1.68-1.46,2.63-.27.48-.56.98-.86,1.49-.29.51-.6,1.03-.92,1.58-.33.55-.67,1.11-1.03,1.69-.34.57-.7,1.16-1.08,1.75-7.89,12.7-21.44,31.74-39.81,49.56-.86.84-1.74,1.68-2.64,2.52-1.79,1.69-3.64,3.37-5.52,5.02-.93.81-1.88,1.63-2.83,2.44-.7.58-1.4,1.18-2.11,1.77-1.25,1.02-2.5,2.03-3.79,3.04-2.01,1.56-4.05,3.1-6.14,4.61-1.56,1.13-3.15,2.24-4.77,3.32-2.15,1.44-4.33,2.83-6.56,4.19-1.68,1.02-3.37,2.01-5.08,2.96-1.14.64-2.3,1.26-3.46,1.87-1.17.61-2.34,1.21-3.52,1.79-.66.33-1.33.65-2,.97-1.35.64-2.69,1.25-4.07,1.84-1.36.58-2.75,1.16-4.13,1.72-1.4.55-2.8,1.08-4.21,1.59-.71.25-1.42.5-2.14.74-7.6,2.58-15.53,4.49-23.77,5.53-1.37.18-2.76.33-4.16.46-20.26,1.86-42.34-1.47-65.97-12.52-1.69-1.4-3.44-2.75-5.41-4.27-2.1,1.98-4.21,3.95-6.36,5.91-.94.86-1.88,1.72-2.83,2.57-1.21,1.11-2.44,2.2-3.69,3.28-1.25,1.09-2.5,2.19-3.76,3.27-.42.38-.85.74-1.27,1.09-.86.75-1.73,1.49-2.61,2.21-1.04.88-2.1,1.75-3.15,2.62-.57.47-1.13.94-1.7,1.4-1.04.86-2.1,1.72-3.15,2.54-2,1.61-4.02,3.19-6.05,4.77-.25.2-.52.41-.79.61-1.75,1.35-3.53,2.68-5.31,4-1.6,1.2-3.22,2.38-4.84,3.53-.81.6-1.64,1.18-2.47,1.77-.89.64-1.78,1.26-2.67,1.88-.05.04-.1.08-.17.1h0c-.92.65-1.84,1.3-2.77,1.92-.88.61-1.75,1.21-2.63,1.79-.71.48-1.44.97-2.16,1.45-1.11.74-2.21,1.46-3.34,2.19-.9.6-1.81,1.18-2.72,1.75-1.68,1.08-3.36,2.14-5.06,3.18-1.89,1.17-3.8,2.33-5.73,3.48h-.01c-1.25.74-2.48,1.46-3.72,2.19-.42.25-.84.5-1.27.74-.36.2-.71.41-1.08.61-.51.29-1.02.58-1.54.88-1.54.86-3.08,1.73-4.63,2.57.99.5,2.06,1,3.19,1.51,1.12.52,2.3,1.03,3.55,1.54,1.87.76,3.88,1.54,6,2.31,1.4.51,2.86,1.02,4.37,1.51h.01c1.51.51,3.06.99,4.68,1.47,4.21,1.27,8.71,2.48,13.46,3.57,3.24.76,6.61,1.46,10.05,2.1,1.3.24,2.62.47,3.94.69,2.66.44,5.35.85,8.08,1.19.25.04.51.06.76.09.99.13,2,.24,3.01.36,2.01.22,4.04.41,6.08.58h.03c1.03.09,2.06.15,3.09.22,1.03.08,2.06.13,3.09.18.84.05,1.68.08,2.52.11.46.03.93.04,1.39.05.71.01,1.42.04,2.15.05,1.75.03,3.51.04,5.26.01,1.03-.01,2.07-.03,3.1-.05.9-.03,1.8-.06,2.71-.1h.04c1.3-.06,2.58-.14,3.88-.23h.01c1.3-.09,2.59-.19,3.89-.32h.01c1.49-.14,2.96-.31,4.44-.48,1.23-.17,2.47-.33,3.7-.52h.01c3.9-.6,7.78-1.36,11.58-2.3,8.11-1.42,16.24-3.64,24.21-6.39,39.85-13.73,75.77-40.88,86.35-49.94,35.04-29.97,60.31-67.47,78.74-109.57,12.08-27.58,19.38-56.36,18.58-86.7-.31-11.58-1.98-23.16-3.09-35.37.24.5.44.9.64,1.28.06.13.11.24.18.36.11.23.22.45.32.65.05.1.09.2.14.31.05.1.1.2.14.31,6.25,13.69,8.68,50.88,1.65,95.54-.43,2.72-.89,5.45-1.39,8.21-.51,2.77-1.04,5.55-1.61,8.38-.57,2.81-1.18,5.63-1.83,8.48h0c-.65,2.86-1.33,5.72-2.06,8.59-2.55,10.07-5.59,20.3-9.16,30.54-1.03,2.92-2.1,5.85-3.2,8.77h0c-1.12,2.94-2.28,5.85-3.48,8.76-1.21,2.91-2.47,5.82-3.76,8.72-1.96,4.33-4.02,8.66-6.19,12.95-2.9,5.71-6,11.36-9.3,16.92-3.32,5.57-6.84,11.03-10.58,16.38-2.81,4-5.75,7.94-8.8,11.81-2.05,2.58-4.14,5.12-6.29,7.61-11.17,12.97-23.92,24.89-38.41,35.22-3.67,2.64-7.47,5.19-11.38,7.6-2.25,1.46-4.53,2.9-6.8,4.31-1.19.72-2.4,1.45-3.61,2.16-2.63,1.59-5.3,3.11-7.98,4.59-20.59,11.35-42.25,19.78-65.49,24.06-.62.11-1.25.23-1.86.33-1.08.19-2.15.37-3.22.53-.79.13-1.58.24-2.36.34-2.57.38-5.15.7-7.75.97-.04,0-.09.01-.13.01-1.6.14-3.14.69-4.7,1.06,1.63,1.08,23.53,7.25,49.18,12.97,6.97,1.77,13.84,3.29,20.66,4.61,2.55.5,5.12.88,7.68,1.13,14.08,2.52,27.54,4.33,37.82,4.6,2.83.08,6.57-1.14,8.48-3.11,10.23-10.59,20.62-21.14,29.96-32.53.28-.33.55-.65.8-.97,5.48-6.75,10.6-13.69,15.38-20.81,5.21-7.73,10.03-15.67,14.5-23.78,14.99-27.07,26.26-56.04,35.86-85.75,11.48-35.51,18.11-72.1,19.18-109.5.33-11.68.04-23.35.04-34.43.39.79,1.41,2.33,1.94,4.03,7.18,23.2,15.55,46.08,21.16,69.64,8.07,33.82,13.38,68.09,17.67,102.53.94,7.56,1.83,15.14,2.68,22.73,2.08,18.46,3.99,36.94,5.96,55.41.04.37.08.75.11,1.12.57,5.89,1.28,16.46,1.94,25.15,8.66-3.71,16.44-7.42,23.26-10.93.19-.09.38-.19.57-.29,13.7-6.8,28.65-15.46,33.1-19.73.01-.03.03-.03.04-.04h.01c-13.93-13.88-23.52-30.6-29.79-48.98-.08-.23-.15-.47-.23-.7Zm-398.2-199c-12.14-4.22-23.57-8.17-35.59-12.33,4.52-9.61,11.36-16.03,18.61-22,1.04-.86,3.78-.14,5.59.39,5.45,1.61,10.84,3.48,17.05,5.52-1.72,8.62-3.57,18-5.66,28.42Zm7.63,1.46v1.44l-4.51-1.44s.18-.95.48-2.43v-.03c.04-.38.09-.8.2-1.3.99-4.56,1.82-9.15,3.29-13.69.19-.61.37-1.18.53-1.65v19.09Zm302.44,208.37c-2.53,8.54-5.26,17.01-8.22,25.4-8.94,25.27-19.87,49.74-33.2,72.66,11.3-1.46,22.13-3.41,32.46-5.67.1-.28.22-.57.33-.86,1.26-.76,2.47-2.67,2.94-4.13,1.97-5.94,3.78-11.95,5.17-18.04.61-2.69,1.22-5.39,1.83-8.08.29-1.35.61-2.69.92-4.06.9-4.04,1.81-8.08,2.71-12.13.58-2.69,1.18-5.4,1.77-8.11,1.16-5.39,2.3-10.79,3.39-16.21.33-1.63.65-3.24.97-4.87.39-1.96.78-3.91,1.14-5.89.41-2.12.8-4.25,1.19-6.37.39-2.12.78-4.25,1.14-6.37.37-2.08.72-4.16,1.07-6.23.25-1.56.51-3.13.76-4.69.01-.14.04-.29.06-.43.1-.61.19-1.21.28-1.82.37-2.33.71-4.64,1.04-6.97.24-1.61.46-3.24.67-4.87.06-.43.13-.86.18-1.31.01-.09.03-.19.04-.28.01-.11.04-.24.05-.36.17-1.27.33-2.54.48-3.83.03-.18.05-.37.08-.55.09-.76.19-1.53.27-2.3.03-.24.06-.5.09-.74.14-1.14.27-2.29.39-3.43.1-.86.19-1.73.28-2.59.13-1.09.24-2.2.34-3.32.08-.78.15-1.55.23-2.34.08-.9.17-1.82.24-2.72.09-.92.17-1.82.23-2.73.03-.28.05-.57.08-.86.17-2.03.31-4.07.45-6.1,1.05-15.98.17-32.1.17-49.55-4.18,36.52-11.17,74.17-22.02,110.73Zm-85.05-503.2c-7.59,8.02-15.27,18.29-21.54,31.22-2,3.41-3.15,6.81-4.69,10.24.5.29.94.56,1.41.85h.03c1.28-1.16,2.58-2.31,3.93-3.52.37-.34.76-.69,1.16-1.03,0-.01,0-.03.04-.03.64-.57,1.28-1.16,1.97-1.78v1.74c0,.95-.01,1.91-.01,2.85v.08c.44,6.01,3.55,10.69,7.3,10.69,4.07,0,7.36-5.45,7.36-12.16,0-1.19-.1-2.35-.3-3.44,3.71,2.64,5.87,7.32,4.86,12.39-.99,4.97-5.16,8.86-10.18,9.55-3.6.5-6.94-.58-9.44-2.63-.5,10.02-1.18,19.33-1.18,19.33v.03c-.89,4.65-2.76,8.39-7.03,10.55,3.3.64,5.83,3.57,5.83,7.08,0,.9-.17,1.75-.47,2.54,1.3-1.22,3.03-1.98,4.96-1.98,3.99,0,7.22,3.23,7.22,7.23,0,.09,0,.19-.01.28,1.33-1.64,3.36-2.68,5.62-2.68,2.39,0,4.5,1.14,5.81,2.95-.01-.22-.03-.43-.03-.65,0-3.98,3.24-7.21,7.22-7.21,1.61,0,3.11.53,4.31,1.44-.97-1.22-1.53-2.76-1.53-4.42,0-2.25,1.03-4.27,2.66-5.62h-.34c-.2,0-.39.03-.6.04-.38.03-.74.04-1.09.01h-.23c-6.38-.56-7.78-9.63-7.45-19.12.32-3.15.76-6.32,1.07-9.47-.14.42-.29.79-.43,1.19.08-.69.15-1.37.24-2.03.04.19.1.37.11.57l.1-.15c.29-2.31.57-4.6.93-7.38.09-.05.13-.06.23-.11,1.44.8,2.34,1.35,3.3,1.77,6.05,2.67,11.97,5.73,18.23,7.83,1.12.38,2.14.61,3.04.7.19.03.38.03.55.03,3.85.17,5.68-2.4,6.2-7.56.15-1.45.31-3.24,1.18-4.17,4.18-4.4,5.01-8.61,2.21-14.05,1.91-1.68,3.88-3.38,7.19-6.28-1.51-.67-2.63-1-3.58-1.65-5.63-3.76-7.39-8.53-5.76-14.69.18-.66.38-1.33.64-2.02,2.2-6.02,2.26-11.86.94-17.57-.9-3.86-2.45-7.68-4.4-11.43-1.14-2.2-2.3-3.3-3.8-3.23-.81.05-1.7.41-2.75,1.14-2.28,1.22-6.78,3.67-12.42,7.65-5.45,3.84-11.97,9.13-18.56,16.1Zm-155.67,1.92c2.02,6.27,4.8,12.09,8.26,17.38,12.93,19.89,35.17,32.34,61.86,32.9,16.19.32,31.45-3.34,44.17-14.76,2.45.42,5.33.93,7.75,1.35,4-15.55,10.46-28.93,19-40.57,4.59-6.29,9.79-12.06,15.55-17.39,8.61-7.97,18.42-14.95,29.29-21.15-.8-1.46-1.47-2.75-2.19-4.03-3.25-2.91-3.83-9.02-14.77-4.18-6.39,2.63-21.8,8.02-36.29,26.97-3.94,5.14-7.8,11.27-11.41,18.62-5.15,10.49-9.75,23.46-13.24,39.53-3.85-1.63-5.17-4.44-5.36-8.39,1.67-11.97,4.37-22.28,7.74-31.15,2.76-7.28,5.97-13.6,9.43-19.08,15.62-24.67,36.23-32.15,43.12-33.67,4.5-1.2,6.72-1.16,12.44.36-4.88-5.21-9.28-7.26-14.31-7.91-11.43-1.47-19.92.76-31.26,9.46-6.64,6.02-16.58,14.73-25.26,31.92-2.81,5.55-5.49,12.01-7.88,19.54-1.93,6.04-3.67,12.76-5.15,20.29-.53-.06-2.08-10.8-1.73-19.73.05-1.16.13-2.28.24-3.34.79-5.63,2.03-11.01,3.71-16.14,4.45-13.61,12.05-25.46,22.8-35.68,10.87-10.33,22.83-17.16,40.29-14.6,2.76.33,6.76,3.33,7.27,3.83-6.61-9.55-16.49-10.17-17.17-10.41-7.27-7.87-39.44-52.86-106.12-21.33-29.82,14.67-46.45,48.23-44.59,80.85.42,7.26,1.72,14.13,3.8,20.54Zm162.32,53.02c-.03.13-.04.27-.05.41.05-.1.08-.22.1-.32l-.05-.09Zm-331.15,249.35c5.21-8.22,10.59-16.71,17.06-23.97-.17-3.39-.23-8.13-.17-14.12v-.57c0-101.88,56.6-193.74,147.76-239.87-2.25-3.8-6.15-10.66-8.96-17.02h-.01c-27.09,13.74-51.85,31.71-73.57,53.45-54.35,54.35-84.29,126.6-84.29,203.44,0,6.94.67,26.81,1.4,39.9.25-.41.52-.83.78-1.23Zm99.79,179.85c3.86-2.02,13.33-7.79,16.49-11.19-6.3-5.26-12.49-10.94-18.43-16.91-3.48,1.27-11.19,3.78-21.52,5.25,2.81,3.06,5.68,6.06,8.59,8.96,4.68,4.7,9.67,9.36,14.87,13.88Z"/>
    <text class="cls-2" transform="translate(30.18 993.16)"><tspan class="cls-5" x="0" y="0">D</tspan><tspan x="110.8" y="0">IMAN</tspan><tspan class="cls-8" x="531.39" y="0">C</tspan><tspan x="636.67" y="0" xml:space="preserve">HE     </tspan><tspan class="cls-7" x="1163.37" y="0">B</tspan><tspan x="1271.49" y="0">AMA</tspan><tspan class="cls-4" x="1656.27" y="0">K</tspan><tspan x="1759.7" y="0">O</tspan></text>
  </g>
  <g>
    <text class="cls-1" transform="translate(587.67 1153.4)"><tspan x="0" y="0">Bazin &amp; Couture</tspan></text>
    <rect x="316.72" y="1116.97" width="249.25" height="6.39"/>
    <rect x="1385.74" y="1116.97" width="249.25" height="6.39"/>
  </g>
</svg>